# xmcd
#
# Track frame offsets: 
#        150
#        16771
#        32671
#        46808
#
# Disc length: 764 seconds
#
# Revision: 0
# Processed by: cddbd v1.5.1PL2 Copyright (c) Steve Scherf et al.
# Submitted via: ExactAudioCopy v0.90b4
#
DISCID=2102fa04
DTITLE=the Spectones - Home Girl
DYEAR=2006
DGENRE=Blues
TTITLE0=Help Me
TTITLE1=Down Home Girl
TTITLE2=I Can Tell
TTITLE3=20 Yards Behind
EXTD=Demo Recorded at Ground Zero 8th April 2006. www.spectones.co.uk
EXTT0=
EXTT1=
EXTT2=
EXTT3=
PLAYORDER=
